<svg width="14" height="18" viewBox="0 0 14 18" fill="none" xmlns="http://www.w3.org/2000/svg">
<path d="M9.98153 7.60999L10.0253 8.03343L10.4113 8.2129C11.9622 8.93398 13 10.1426 13 11.5312C13 11.583 12.9581 11.625 12.9063 11.625H8.12504H7.37504V12.375V15.9208L7.00002 16.6708L6.625 15.9208V12.375V11.625H5.875H1.09375C1.04197 11.625 1 11.583 1 11.5312C1 10.1556 2.02298 8.94085 3.58865 8.2129L3.97467 8.03343L4.01847 7.60999L4.44861 3.45217L4.53418 2.62499H3.70259H2.21875C2.16697 2.62499 2.125 2.58302 2.125 2.53124V0.843742C2.125 0.79196 2.16697 0.749992 2.21875 0.749992H11.7812C11.833 0.749992 11.875 0.79196 11.875 0.843742V2.53124C11.875 2.58302 11.833 2.62499 11.7812 2.62499H10.2974H9.46582L9.55139 3.45217L9.98153 7.60999Z" stroke="#999B9E" stroke-width="1.5" fill="currentColor"/>
</svg>
